# xmcd
#
# Track frame offsets: 
#        150
#        19247
#        44884
#        67913
#        88821
#        106106
#        127167
#        153911
#        167701
#        189244
#        213233
#        239648
#        261781
#        282934
#
# Disc length: 3996 seconds
#
# Revision: 0
# Processed by: cddbd v1.5.2PL0 Copyright (c) Steve Scherf et al.
# Submitted via: ExactAudioCopy v1.3
#
DISCID=c80f9a0e
DTITLE=Hands of Time - Climax Blues Band
DYEAR=2019
DGENRE=Blues Rock
TTITLE0=Climax Blues Band - Ain't That A Kick In The Head
TTITLE1=Climax Blues Band - Straight Down The Middle
TTITLE2=Climax Blues Band - What's Your Name
TTITLE3=Climax Blues Band - Flood Of Emotion
TTITLE4=Climax Blues Band - Top Of The World
TTITLE5=Climax Blues Band - My Music
TTITLE6=Climax Blues Band - 17th Street Canal
TTITLE7=Climax Blues Band - Simple Song
TTITLE8=Climax Blues Band - The Cat
TTITLE9=Climax Blues Band - Hands Of Time
TTITLE10=Climax Blues Band - Faith
TTITLE11=Climax Blues Band - Hard Luck
TTITLE12=Climax Blues Band - Wrong Time
TTITLE13=Climax Blues Band - Getting There
EXTD=
EXTT0=
EXTT1=
EXTT2=
EXTT3=
EXTT4=
EXTT5=
EXTT6=
EXTT7=
EXTT8=
EXTT9=
EXTT10=
EXTT11=
EXTT12=
EXTT13=
PLAYORDER=
